<svg xmlns="http://www.w3.org/2000/svg" viewBox="0 -0.5 16 16" shape-rendering="crispEdges">
<metadata>Made with Pixels to Svg https://codepen.io/shshaw/pen/XbxvNj</metadata>
<path stroke="#d0eae9" d="M0 0h15M0 1h1M0 2h1M4 2h1M0 3h1M3 3h1M0 4h1M0 5h1M0 6h1M0 7h1M0 8h1M0 9h1M0 10h1M0 11h1M13 12h1M0 13h1M12 13h1" />
<path stroke="#a8d0d9" d="M15 0h1M15 1h1M2 4h1M0 12h1M0 14h1M15 14h1M0 15h2M3 15h1M14 15h2" />
<path stroke="#2bcbc0" d="M3 2h1M5 2h2M9 2h4M12 3h1M3 12h1M12 12h1" />
<path stroke="#49d5cc" d="M7 2h2M4 3h3M8 3h4M3 4h3M10 4h3M3 5h2M11 5h2M3 6h1M12 6h1M3 7h1M12 8h1M3 9h1M12 9h1M3 10h2M11 10h2M3 11h3M10 11h3M4 12h4M9 12h3" />
<path stroke="#7baeb7" d="M15 2h1M15 3h1M15 4h1M15 6h1" />
<path stroke="#6fe3dc" d="M7 3h1M6 4h4M5 5h1M10 5h1M4 6h1M11 6h1M4 7h1M11 7h2M3 8h2M11 8h1M4 9h1M11 9h1M5 10h1M10 10h1M6 11h4M8 12h1" />
<path stroke="#9cf2ed" d="M6 5h1M9 5h1M5 6h1M10 6h1M5 9h1M10 9h1M6 10h1M9 10h1" />
<path stroke="#c4fffe" d="M7 5h2M6 6h1M9 6h1M5 7h1M10 7h1M5 8h1M10 8h1M6 9h1M9 9h1M7 10h2" />
<path stroke="#8bc1cd" d="M15 5h1M15 7h1M15 8h1M15 9h1M15 10h1M15 11h1M15 12h1M15 13h1M2 15h1M4 15h10" />
<path stroke="#d6fffe" d="M7 6h2M6 7h1M9 7h1M6 8h1M9 8h1M7 9h2" />
<path stroke="#eeffff" d="M7 7h2M7 8h2" />
<path stroke="#100c1c" d="M2 13h1M7 13h3M4 14h1M9 14h2" />
<path stroke="#06030b" d="M3 13h3M10 13h2M2 14h2M5 14h1M7 14h2M12 14h1" />
<path stroke="#000001" d="M6 13h1M13 13h1M11 14h1M13 14h1" />
<path stroke="#271e3d" d="M6 14h1" />
</svg>