{
	"asset":{
		"generator":"Khronos glTF Blender I/O v4.3.47",
		"version":"2.0"
	},
	"extensionsUsed":[
		"KHR_materials_specular"
	],
	"scene":0,
	"scenes":[
		{
			"name":"Scene",
			"nodes":[
				0
			]
		}
	],
	"nodes":[
		{
			"mesh":0,
			"name":"16267_American_Paint_Horse_Nuetral_new",
			"scale":[
				0.057263243943452835,
				0.057263243943452835,
				0.057263243943452835
			]
		}
	],
	"materials":[
		{
			"doubleSided":true,
			"extensions":{
				"KHR_materials_specular":{
					"specularFactor":0
				}
			},
			"name":"_16267_American_Paint_Horse_Nuetral_V1default",
			"pbrMetallicRoughness":{
				"baseColorFactor":[
					0.800000011920929,
					0.800000011920929,
					0.800000011920929,
					1
				],
				"metallicFactor":0
			}
		}
	],
	"meshes":[
		{
			"name":"16267_American_Paint_Horse_Nuetral_new",
			"primitives":[
				{
					"attributes":{
						"POSITION":0,
						"NORMAL":1
					},
					"indices":2,
					"material":0
				}
			]
		}
	],
	"accessors":[
		{
			"bufferView":0,
			"componentType":5126,
			"count":967,
			"max":[
				19.81809425354004,
				78.98389434814453,
				80.86256408691406
			],
			"min":[
				-3.5662038326263428,
				0.23169207572937012,
				-13.381908416748047
			],
			"type":"VEC3"
		},
		{
			"bufferView":1,
			"componentType":5126,
			"count":967,
			"type":"VEC3"
		},
		{
			"bufferView":2,
			"componentType":5123,
			"count":5790,
			"type":"SCALAR"
		}
	],
	"bufferViews":[
		{
			"buffer":0,
			"byteLength":11604,
			"byteOffset":0,
			"target":34962
		},
		{
			"buffer":0,
			"byteLength":11604,
			"byteOffset":11604,
			"target":34962
		},
		{
			"buffer":0,
			"byteLength":11580,
			"byteOffset":23208,
			"target":34963
		}
	],
	"buffers":[
		{
			"byteLength":34788,
			"uri":"StolenHorse.bin"
		}
	]
}
